<svg width="1484" height="1625" viewBox="0 0 1484 1625" xmlns="http://www.w3.org/2000/svg" xmlns:xlink="http://www.w3.org/1999/xlink" xml:space="preserve" overflow="hidden"><g transform="translate(-2295 -173)"><path d="M2716.5 248.5 2895.25 248.5 2895.25 826.941 3590.5 826.941 3590.5 1031.5 2716.5 1031.5 2716.5 826.941 2716.5 826.941Z" stroke="#042433" stroke-width="6.875" stroke-miterlimit="8" fill="none" fill-rule="evenodd"/><rect x="3324.5" y="827.5" width="270" height="204" stroke="#042433" stroke-width="6.875" stroke-miterlimit="8" fill="#F6C6AD"/><text font-family="Meiryo UI,Meiryo UI_MSFontService,sans-serif" font-weight="700" font-size="83" transform="matrix(1 0 0 1 3376.77 962)">講堂</text><rect x="2906.5" y="827.5" width="143" height="92.0001" stroke="#042433" stroke-width="6.875" stroke-miterlimit="8" fill="#FBE3D6"/><text font-family="Meiryo UI,Meiryo UI_MSFontService,sans-serif" font-weight="700" font-size="28" transform="matrix(1 0 0 1 2931.8 884)">4</text><text font-family="Meiryo UI,Meiryo UI_MSFontService,sans-serif" font-weight="700" font-size="28" transform="matrix(1 0 0 1 2950.14 884)">部</text><text font-family="Meiryo UI,Meiryo UI_MSFontService,sans-serif" font-weight="700" font-size="28" transform="matrix(1 0 0 1 2977.64 884)">6</text><text font-family="Meiryo UI,Meiryo UI_MSFontService,sans-serif" font-weight="700" font-size="28" transform="matrix(1 0 0 1 2995.97 884)">年</text><rect x="3030.5" y="956.5" width="186" height="74.9999" stroke="#042433" stroke-width="6.875" stroke-miterlimit="8" fill="#F2AA84"/><text font-family="Meiryo UI,Meiryo UI_MSFontService,sans-serif" font-weight="700" font-size="32" transform="matrix(1 0 0 1 3059.09 1006)">書籍販売</text><rect x="2716.5" y="919.5" width="144" height="112" stroke="#042433" stroke-width="6.875" stroke-miterlimit="8" fill="#FBE3D6"/><text font-family="Meiryo UI,Meiryo UI_MSFontService,sans-serif" font-weight="700" font-size="28" transform="matrix(1 0 0 1 2735.15 970)">ICT</text><text font-family="Meiryo UI,Meiryo UI_MSFontService,sans-serif" font-weight="700" font-size="28" transform="matrix(1 0 0 1 2786.14 970)">活動</text><text font-family="Meiryo UI,Meiryo UI_MSFontService,sans-serif" font-weight="700" font-size="28" transform="matrix(1 0 0 1 2760.66 1003)">教室</text><text fill="#EE0000" font-family="Meiryo UI,Meiryo UI_MSFontService,sans-serif" font-weight="400" font-size="37" writing-mode="tb-rl" transform="matrix(1 2.95822e-25 -2.95822e-25 1 3613.8 840)" x="15.7268" y="2.78223">（３階南）</text><text fill="#00B050" font-family="Meiryo UI,Meiryo UI_MSFontService,sans-serif" font-weight="400" font-size="37" transform="matrix(1 0 0 1 2718.78 226)">（３階東）</text><text fill="#EE0000" font-family="Meiryo UI,Meiryo UI_MSFontService,sans-serif" font-weight="400" font-size="37" writing-mode="tb-rl" transform="matrix(1 2.95822e-25 -2.95822e-25 1 3364.89 1300)" x="15.7268" y="2.78223">（１階南）</text><rect x="3270.5" y="956.5" width="55" height="67.9998" stroke="#042433" stroke-width="6.875" stroke-miterlimit="8" fill="#FFFFFF"/><text font-family="Meiryo UI,Meiryo UI_MSFontService,sans-serif" font-weight="700" font-size="18" transform="matrix(1 0 0 1 3288.26 986)">階</text><text font-family="Meiryo UI,Meiryo UI_MSFontService,sans-serif" font-weight="700" font-size="18" transform="matrix(1 0 0 1 3288.26 1008)">段</text><rect x="2859.5" y="963.5" width="55" height="68.0001" stroke="#042433" stroke-width="6.875" stroke-miterlimit="8" fill="#FFFFFF"/><text font-family="Meiryo UI,Meiryo UI_MSFontService,sans-serif" font-weight="700" font-size="18" transform="matrix(1 0 0 1 2877.28 993)">階</text><text font-family="Meiryo UI,Meiryo UI_MSFontService,sans-serif" font-weight="700" font-size="18" transform="matrix(1 0 0 1 2877.28 1015)">段</text><rect x="2846.5" y="1437.5" width="55" height="68.0001" stroke="#042433" stroke-width="6.875" stroke-miterlimit="8" fill="#FFFFFF"/><text font-family="Meiryo UI,Meiryo UI_MSFontService,sans-serif" font-weight="700" font-size="18" transform="matrix(1 0 0 1 2864.29 1467)">階</text><text font-family="Meiryo UI,Meiryo UI_MSFontService,sans-serif" font-weight="700" font-size="18" transform="matrix(1 0 0 1 2864.29 1489)">段</text><rect x="2588.5" y="1437.5" width="54" height="68.0001" stroke="#042433" stroke-width="6.875" stroke-miterlimit="8" fill="#FFFFFF"/><text font-family="Meiryo UI,Meiryo UI_MSFontService,sans-serif" font-weight="700" font-size="18" transform="matrix(1 0 0 1 2605.83 1467)">階</text><text font-family="Meiryo UI,Meiryo UI_MSFontService,sans-serif" font-weight="700" font-size="18" transform="matrix(1 0 0 1 2605.83 1489)">段</text><path d="M2299.5 723.5 2478.25 723.5 2478.25 1301.79 3173.5 1301.79 3173.5 1506.3 2587.89 1506.3 2587.89 1702.5 2299.5 1702.5 2299.5 1506.3 2299.5 1506.01 2299.5 1301.79Z" stroke="#042433" stroke-width="6.875" stroke-miterlimit="8" fill="none" fill-rule="evenodd"/><rect x="2483.5" y="1535.5" width="105" height="129" stroke="#042433" stroke-width="6.875" stroke-miterlimit="8" fill="#FFFFFF"/><text font-family="Meiryo UI,Meiryo UI_MSFontService,sans-serif" font-weight="700" font-size="32" transform="matrix(1 0 0 1 2503.32 1612)">受付</text><rect x="2539.5" y="821.5" width="144" height="91.9998" stroke="#042433" stroke-width="6.875" stroke-miterlimit="8" fill="#D9F2D0"/><text font-family="Meiryo UI,Meiryo UI_MSFontService,sans-serif" font-weight="700" font-size="28" transform="matrix(1 0 0 1 2555.84 878)">２</text><text font-family="Meiryo UI,Meiryo UI_MSFontService,sans-serif" font-weight="700" font-size="28" transform="matrix(1 0 0 1 2583.34 878)">部</text><text font-family="Meiryo UI,Meiryo UI_MSFontService,sans-serif" font-weight="700" font-size="28" transform="matrix(1 0 0 1 2610.84 878)">４</text><text font-family="Meiryo UI,Meiryo UI_MSFontService,sans-serif" font-weight="700" font-size="28" transform="matrix(1 0 0 1 2638.34 878)">年</text><rect x="2541.5" y="910.5" width="143" height="92.9998" stroke="#042433" stroke-width="6.875" stroke-miterlimit="8" fill="#D9F2D0"/><text font-family="Meiryo UI,Meiryo UI_MSFontService,sans-serif" font-weight="700" font-size="28" transform="matrix(1 0 0 1 2557.29 968)">３</text><text font-family="Meiryo UI,Meiryo UI_MSFontService,sans-serif" font-weight="700" font-size="28" transform="matrix(1 0 0 1 2584.79 968)">部</text><text font-family="Meiryo UI,Meiryo UI_MSFontService,sans-serif" font-weight="700" font-size="28" transform="matrix(1 0 0 1 2612.29 968)">４</text><text font-family="Meiryo UI,Meiryo UI_MSFontService,sans-serif" font-weight="700" font-size="28" transform="matrix(1 0 0 1 2639.79 968)">年</text><rect x="2751.5" y="664.5" width="143" height="92.0001" stroke="#042433" stroke-width="6.875" stroke-miterlimit="8" fill="#D9F2D0"/><text font-family="Meiryo UI,Meiryo UI_MSFontService,sans-serif" font-weight="700" font-size="28" transform="matrix(1 0 0 1 2771.75 722)">３部</text><text font-family="Meiryo UI,Meiryo UI_MSFontService,sans-serif" font-weight="700" font-size="28" transform="matrix(1 0 0 1 2826.75 722)">6</text><text font-family="Meiryo UI,Meiryo UI_MSFontService,sans-serif" font-weight="700" font-size="28" transform="matrix(1 0 0 1 2845.08 722)">年</text><rect x="2716.5" y="247.5" width="178" height="126" stroke="#042433" stroke-width="6.875" stroke-miterlimit="8" fill="#D9F2D0"/><text font-family="Meiryo UI,Meiryo UI_MSFontService,sans-serif" font-weight="700" font-size="28" transform="matrix(1 0 0 1 2736.4 322)">社会科教室</text><rect x="3420.5" y="1561.5" width="195" height="121" stroke="#042433" stroke-width="6.875" stroke-miterlimit="8" fill="#F2CFEE"/><text font-family="Meiryo UI,Meiryo UI_MSFontService,sans-serif" font-weight="700" font-size="46" transform="matrix(1 0 0 1 3472.03 1627)">１音</text><text font-family="Meiryo UI,Meiryo UI_MSFontService,sans-serif" font-weight="400" font-size="23" transform="matrix(1 0 0 1 3454.54 1659)">(</text><text font-family="Meiryo UI,Meiryo UI_MSFontService,sans-serif" font-weight="400" font-size="23" transform="matrix(1 0 0 1 3464.85 1659)">第</text><text font-family="Meiryo UI,Meiryo UI_MSFontService,sans-serif" font-weight="400" font-size="23" transform="matrix(1 0 0 1 3487.77 1659)">1</text><text font-family="Meiryo UI,Meiryo UI_MSFontService,sans-serif" font-weight="400" font-size="23" transform="matrix(1 0 0 1 3502.09 1659)">音楽室</text><text font-family="Meiryo UI,Meiryo UI_MSFontService,sans-serif" font-weight="400" font-size="23" transform="matrix(1 0 0 1 3570.84 1659)">)</text><rect x="3476.5" y="1372.5" width="195" height="121" stroke="#042433" stroke-width="6.875" stroke-miterlimit="8" fill="#F2CFEE"/><text font-family="Meiryo UI,Meiryo UI_MSFontService,sans-serif" font-weight="700" font-size="46" transform="matrix(1 0 0 1 3527.89 1437)">２音</text><text font-family="Meiryo UI,Meiryo UI_MSFontService,sans-serif" font-weight="400" font-size="23" transform="matrix(1 0 0 1 3506.12 1469)">(</text><text font-family="Meiryo UI,Meiryo UI_MSFontService,sans-serif" font-weight="400" font-size="23" transform="matrix(1 0 0 1 3516.43 1469)">第２音楽室</text><text font-family="Meiryo UI,Meiryo UI_MSFontService,sans-serif" font-weight="400" font-size="23" transform="matrix(1 0 0 1 3631.02 1469)">)</text><rect x="3479.5" y="1493.5" width="55" height="68.0001" stroke="#042433" stroke-width="6.875" stroke-miterlimit="8" fill="#FFFFFF"/><text font-family="Meiryo UI,Meiryo UI_MSFontService,sans-serif" font-weight="700" font-size="18" transform="matrix(1 0 0 1 3497.53 1523)">階</text><text font-family="Meiryo UI,Meiryo UI_MSFontService,sans-serif" font-weight="700" font-size="18" transform="matrix(1 0 0 1 3497.53 1545)">段</text><text fill="#A02B93" font-family="Meiryo UI,Meiryo UI_MSFontService,sans-serif" font-weight="400" font-size="37" writing-mode="tb-rl" transform="matrix(1 2.95822e-25 -2.95822e-25 1 3707.52 1306)" x="15.7268" y="2.78223">（西校舎２階）</text><text fill="#A02B93" font-family="Meiryo UI,Meiryo UI_MSFontService,sans-serif" font-weight="400" font-size="37" writing-mode="tb-rl" transform="matrix(1 2.95822e-25 -2.95822e-25 1 3642.36 1502)" x="15.7268" y="2.78223">（西校舎１階）</text><rect x="3550.5" y="1031.5" width="44" height="341" stroke="#042433" stroke-width="6.875" stroke-miterlimit="8" stroke-dasharray="6.875 6.875" fill="#FFFFFF"/><text font-family="Meiryo UI,Meiryo UI_MSFontService,sans-serif" font-weight="700" font-size="18" transform="matrix(1 0 0 1 3562.69 1198)">通</text><text font-family="Meiryo UI,Meiryo UI_MSFontService,sans-serif" font-weight="700" font-size="18" transform="matrix(1 0 0 1 3562.69 1220)">路</text><rect x="2751.5" y="754.5" width="143" height="38.9998" stroke="#042433" stroke-width="6.875" stroke-miterlimit="8" fill="#FFFFFF"/><text font-family="Meiryo UI,Meiryo UI_MSFontService,sans-serif" font-weight="700" font-size="18" transform="matrix(1 0 0 1 2794.66 781)">ＷＣ女</text><rect x="2716.5" y="879.5" width="102" height="38.9998" stroke="#042433" stroke-width="6.875" stroke-miterlimit="8" fill="#FFFFFF"/><text font-family="Meiryo UI,Meiryo UI_MSFontService,sans-serif" font-weight="700" font-size="18" transform="matrix(1 0 0 1 2739.68 905)">ＷＣ男</text><rect x="2333.5" y="1223.5" width="143" height="39.0002" stroke="#042433" stroke-width="6.875" stroke-miterlimit="8" fill="#FFFFFF"/><text font-family="Meiryo UI,Meiryo UI_MSFontService,sans-serif" font-weight="700" font-size="18" transform="matrix(1 0 0 1 2376.68 1249)">ＷＣ女</text><rect x="2298.5" y="1452.5" width="102" height="39.0002" stroke="#042433" stroke-width="6.875" stroke-miterlimit="8" fill="#FFFFFF"/><text font-family="Meiryo UI,Meiryo UI_MSFontService,sans-serif" font-weight="700" font-size="18" transform="matrix(1 0 0 1 2321.7 1479)">ＷＣ男</text><rect x="3084.5" y="1301.5" width="270" height="204" stroke="#042433" stroke-width="6.875" stroke-miterlimit="8" fill="#F6C6AD"/><text font-family="Meiryo UI,Meiryo UI_MSFontService,sans-serif" font-weight="700" font-size="64" transform="matrix(1 0 0 1 3154.99 1404)">１体</text><text font-family="Meiryo UI,Meiryo UI_MSFontService,sans-serif" font-weight="400" font-size="41" transform="matrix(1 0 0 1 3105.42 1458)">(</text><text font-family="Meiryo UI,Meiryo UI_MSFontService,sans-serif" font-weight="400" font-size="41" transform="matrix(1 0 0 1 3123.76 1458)">第</text><text font-family="Meiryo UI,Meiryo UI_MSFontService,sans-serif" font-weight="400" font-size="41" transform="matrix(1 0 0 1 3165.01 1458)">1</text><text font-family="Meiryo UI,Meiryo UI_MSFontService,sans-serif" font-weight="400" font-size="41" transform="matrix(1 0 0 1 3190.79 1458)">体育館</text><text font-family="Meiryo UI,Meiryo UI_MSFontService,sans-serif" font-weight="400" font-size="41" transform="matrix(1 0 0 1 3314.54 1458)">)</text><rect x="2940.5" y="1301.5" width="144" height="92.0001" stroke="#042433" stroke-width="6.875" stroke-miterlimit="8" fill="#FBE3D6"/><text font-family="Meiryo UI,Meiryo UI_MSFontService,sans-serif" font-weight="700" font-size="28" transform="matrix(1 0 0 1 2956.97 1359)">３</text><text font-family="Meiryo UI,Meiryo UI_MSFontService,sans-serif" font-weight="700" font-size="28" transform="matrix(1 0 0 1 2984.47 1359)">部</text><text font-family="Meiryo UI,Meiryo UI_MSFontService,sans-serif" font-weight="700" font-size="28" transform="matrix(1 0 0 1 3011.97 1359)">４</text><text font-family="Meiryo UI,Meiryo UI_MSFontService,sans-serif" font-weight="700" font-size="28" transform="matrix(1 0 0 1 3039.47 1359)">年</text><rect x="2703.5" y="1062.5" width="143" height="92.9998" stroke="#042433" stroke-width="6.875" stroke-miterlimit="8" fill="#FBE3D6"/><text font-family="Meiryo UI,Meiryo UI_MSFontService,sans-serif" font-weight="700" font-size="28" transform="matrix(1 0 0 1 2719.58 1120)">２</text><text font-family="Meiryo UI,Meiryo UI_MSFontService,sans-serif" font-weight="700" font-size="28" transform="matrix(1 0 0 1 2747.08 1120)">部</text><text font-family="Meiryo UI,Meiryo UI_MSFontService,sans-serif" font-weight="700" font-size="28" transform="matrix(1 0 0 1 2774.58 1120)">５</text><text font-family="Meiryo UI,Meiryo UI_MSFontService,sans-serif" font-weight="700" font-size="28" transform="matrix(1 0 0 1 2802.08 1120)">年</text><path d="M2506.5 481.5 2685.25 481.5 2685.25 1059.94 3380.5 1059.94 3380.5 1264.5 2506.5 1264.5 2506.5 1059.94 2506.5 1059.94Z" stroke="#042433" stroke-width="6.875" stroke-miterlimit="8" fill="none" fill-rule="evenodd"/><text fill="#EE0000" font-family="Meiryo UI,Meiryo UI_MSFontService,sans-serif" font-weight="400" font-size="37" writing-mode="tb-rl" transform="matrix(1 2.95822e-25 -2.95822e-25 1 3421.88 1066)" x="15.7268" y="2.78223">（</text><text fill="#EE0000" font-family="Meiryo UI,Meiryo UI_MSFontService,sans-serif" font-weight="400" font-size="37" writing-mode="tb-rl" transform="matrix(1 2.95822e-25 -2.95822e-25 1 3421.88 1102)" x="15.7268" y="2.78223">２</text><text fill="#EE0000" font-family="Meiryo UI,Meiryo UI_MSFontService,sans-serif" font-weight="400" font-size="37" writing-mode="tb-rl" transform="matrix(1 2.95822e-25 -2.95822e-25 1 3421.88 1139)" x="15.7268" y="2.78223">階</text><text fill="#EE0000" font-family="Meiryo UI,Meiryo UI_MSFontService,sans-serif" font-weight="400" font-size="37" writing-mode="tb-rl" transform="matrix(1 2.95822e-25 -2.95822e-25 1 3421.88 1176)" x="15.7268" y="2.78223">南）</text><rect x="3107.5" y="1193.5" width="54" height="68.0001" stroke="#042433" stroke-width="6.875" stroke-miterlimit="8" fill="#FFFFFF"/><text font-family="Meiryo UI,Meiryo UI_MSFontService,sans-serif" font-weight="700" font-size="18" transform="matrix(1 0 0 1 3125.05 1223)">階</text><text font-family="Meiryo UI,Meiryo UI_MSFontService,sans-serif" font-weight="700" font-size="18" transform="matrix(1 0 0 1 3125.05 1245)">段</text><rect x="2647.5" y="1195.5" width="54" height="69.0001" stroke="#042433" stroke-width="6.875" stroke-miterlimit="8" fill="#FFFFFF"/><text font-family="Meiryo UI,Meiryo UI_MSFontService,sans-serif" font-weight="700" font-size="18" transform="matrix(1 0 0 1 2665.09 1225)">階</text><text font-family="Meiryo UI,Meiryo UI_MSFontService,sans-serif" font-weight="700" font-size="18" transform="matrix(1 0 0 1 2665.09 1247)">段</text><rect x="2541.5" y="1001.5" width="143" height="39.0002" stroke="#042433" stroke-width="6.875" stroke-miterlimit="8" fill="#FFFFFF"/><text font-family="Meiryo UI,Meiryo UI_MSFontService,sans-serif" font-weight="700" font-size="18" transform="matrix(1 0 0 1 2584.79 1027)">ＷＣ女</text><rect x="2507.5" y="1111.5" width="101" height="39.0002" stroke="#042433" stroke-width="6.875" stroke-miterlimit="8" fill="#FFFFFF"/><text font-family="Meiryo UI,Meiryo UI_MSFontService,sans-serif" font-weight="700" font-size="18" transform="matrix(1 0 0 1 2529.87 1137)">ＷＣ男</text><rect x="2507.5" y="1152.5" width="143" height="112" stroke="#042433" stroke-width="6.875" stroke-miterlimit="8" fill="#FBE3D6"/><text font-family="Meiryo UI,Meiryo UI_MSFontService,sans-serif" font-weight="700" font-size="28" transform="matrix(1 0 0 1 2523.33 1203)">総合活動</text><text font-family="Meiryo UI,Meiryo UI_MSFontService,sans-serif" font-weight="700" font-size="28" transform="matrix(1 0 0 1 2550.83 1236)">教室</text></g></svg>