<svg viewBox="0 0 1349 1459" width="1349" height="1459" xmlns="http://www.w3.org/2000/svg" xmlns:xlink="http://www.w3.org/1999/xlink" xml:space="preserve" overflow="hidden"><g transform="translate(-2344 -173)"><rect x="3335.5" y="1396.5" width="195" height="120" stroke="#042433" stroke-width="6.875" stroke-miterlimit="8" fill="#F2CFEE"/><text font-family="Meiryo UI,Meiryo UI_MSFontService,sans-serif" font-weight="700" font-size="46" transform="matrix(1 0 0 1 3386.94 1461)">１音</text><text font-family="Meiryo UI,Meiryo UI_MSFontService,sans-serif" font-weight="400" font-size="23" transform="matrix(1 0 0 1 3369.45 1493)">(</text><text font-family="Meiryo UI,Meiryo UI_MSFontService,sans-serif" font-weight="400" font-size="23" transform="matrix(1 0 0 1 3379.77 1493)">第</text><text font-family="Meiryo UI,Meiryo UI_MSFontService,sans-serif" font-weight="400" font-size="23" transform="matrix(1 0 0 1 3402.68 1493)">1</text><text font-family="Meiryo UI,Meiryo UI_MSFontService,sans-serif" font-weight="400" font-size="23" transform="matrix(1 0 0 1 3417 1493)">音楽室</text><text font-family="Meiryo UI,Meiryo UI_MSFontService,sans-serif" font-weight="400" font-size="23" transform="matrix(1 0 0 1 3485.75 1493)">)</text><rect x="3391.5" y="1206.5" width="195" height="121" stroke="#042433" stroke-width="6.875" stroke-miterlimit="8" fill="#F2CFEE"/><text font-family="Meiryo UI,Meiryo UI_MSFontService,sans-serif" font-weight="700" font-size="46" transform="matrix(1 0 0 1 3442.8 1272)">２音</text><text font-family="Meiryo UI,Meiryo UI_MSFontService,sans-serif" font-weight="400" font-size="23" transform="matrix(1 0 0 1 3421.03 1304)">(</text><text font-family="Meiryo UI,Meiryo UI_MSFontService,sans-serif" font-weight="400" font-size="23" transform="matrix(1 0 0 1 3431.34 1304)">第２音楽室</text><text font-family="Meiryo UI,Meiryo UI_MSFontService,sans-serif" font-weight="400" font-size="23" transform="matrix(1 0 0 1 3545.93 1304)">)</text><rect x="3394.5" y="1327.5" width="55" height="68.0001" stroke="#042433" stroke-width="6.875" stroke-miterlimit="8" fill="#FFFFFF"/><text font-family="Meiryo UI,Meiryo UI_MSFontService,sans-serif" font-weight="700" font-size="18" transform="matrix(1 0 0 1 3412.44 1357)">階</text><text font-family="Meiryo UI,Meiryo UI_MSFontService,sans-serif" font-weight="700" font-size="18" transform="matrix(1 0 0 1 3412.44 1379)">段</text><text fill="#A02B93" font-family="Meiryo UI,Meiryo UI_MSFontService,sans-serif" font-weight="400" font-size="37" transform="matrix(1 2.95822e-25 -2.95822e-25 1 3622.43 1140)" text-anchor="middle"><tspan x="15.7268" y="34.60">︵</tspan><tspan x="15.7268" y="71.60">西</tspan><tspan x="15.7268" y="108.60">校</tspan><tspan x="15.7268" y="145.60">舎</tspan><tspan x="15.7268" y="182.60">２</tspan><tspan x="15.7268" y="219.60">階</tspan><tspan x="15.7268" y="256.60">︶</tspan></text><text fill="#A02B93" font-family="Meiryo UI,Meiryo UI_MSFontService,sans-serif" font-weight="400" font-size="37" transform="matrix(1 2.95822e-25 -2.95822e-25 1 3557.27 1336)" text-anchor="middle"><tspan x="15.7268" y="34.60">︵</tspan><tspan x="15.7268" y="71.60">西</tspan><tspan x="15.7268" y="108.60">校</tspan><tspan x="15.7268" y="145.60">舎</tspan><tspan x="15.7268" y="182.60">１</tspan><tspan x="15.7268" y="219.60">階</tspan><tspan x="15.7268" y="256.60">︶</tspan></text><rect x="3541.5" y="1031.5" width="41" height="175" stroke="#042433" stroke-width="6.875" stroke-miterlimit="8" stroke-dasharray="6.875 6.875" fill="#FFFFFF"/><text font-family="Meiryo UI,Meiryo UI_MSFontService,sans-serif" font-weight="700" font-size="18" transform="matrix(1 0 0 1 3552.59 1115)">通</text><text font-family="Meiryo UI,Meiryo UI_MSFontService,sans-serif" font-weight="700" font-size="18" transform="matrix(1 0 0 1 3552.59 1137)">路</text><path d="M2716.5 248.5 2895.25 248.5 2895.25 826.941 3590.5 826.941 3590.5 1031.5 2716.5 1031.5 2716.5 826.941 2716.5 826.941Z" stroke="#042433" stroke-width="6.875" stroke-miterlimit="8" fill="none" fill-rule="evenodd"/><rect x="3335.5" y="827.5" width="255" height="204" stroke="#042433" stroke-width="6.875" stroke-miterlimit="8" fill="#FBE3D6"/><text font-family="Meiryo UI,Meiryo UI_MSFontService,sans-serif" font-weight="700" font-size="83" transform="matrix(1 0 0 1 3380.38 962)">講堂</text><rect x="2906.5" y="827.5" width="143" height="92.0001" stroke="#042433" stroke-width="6.875" stroke-miterlimit="8" fill="#FBE3D6"/><text font-family="Meiryo UI,Meiryo UI_MSFontService,sans-serif" font-weight="700" font-size="28" transform="matrix(1 0 0 1 2931.8 884)">4</text><text font-family="Meiryo UI,Meiryo UI_MSFontService,sans-serif" font-weight="700" font-size="28" transform="matrix(1 0 0 1 2950.14 884)">部</text><text font-family="Meiryo UI,Meiryo UI_MSFontService,sans-serif" font-weight="700" font-size="28" transform="matrix(1 0 0 1 2977.64 884)">6</text><text font-family="Meiryo UI,Meiryo UI_MSFontService,sans-serif" font-weight="700" font-size="28" transform="matrix(1 0 0 1 2995.97 884)">年</text><rect x="3049.5" y="827.5" width="144" height="92.0001" stroke="#042433" stroke-width="6.875" stroke-miterlimit="8" fill="#FBE3D6"/><text font-family="Meiryo UI,Meiryo UI_MSFontService,sans-serif" font-weight="700" font-size="28" transform="matrix(1 0 0 1 3065.96 884)">１部５年</text><rect x="3193.5" y="827.5" width="77" height="92.0001" stroke="#042433" stroke-width="6.875" stroke-miterlimit="8" fill="#FBE3D6"/><text font-family="Meiryo UI,Meiryo UI_MSFontService,sans-serif" font-weight="700" font-size="18" transform="matrix(1 0 0 1 3213.08 869)">算数</text><text font-family="Meiryo UI,Meiryo UI_MSFontService,sans-serif" font-weight="700" font-size="18" transform="matrix(1 0 0 1 3213.08 891)">部室</text><rect x="3024.5" y="953.5" width="196" height="78" stroke="#042433" stroke-width="6.875" stroke-miterlimit="8" fill="#F2AA84"/><text font-family="Meiryo UI,Meiryo UI_MSFontService,sans-serif" font-weight="700" font-size="37" transform="matrix(1 0 0 1 3048.7 1007)">書籍販売</text><rect x="2716.5" y="919.5" width="144" height="112" stroke="#042433" stroke-width="6.875" stroke-miterlimit="8" fill="#FBE3D6"/><text font-family="Meiryo UI,Meiryo UI_MSFontService,sans-serif" font-weight="700" font-size="28" transform="matrix(1 0 0 1 2735.15 970)">ICT</text><text font-family="Meiryo UI,Meiryo UI_MSFontService,sans-serif" font-weight="700" font-size="28" transform="matrix(1 0 0 1 2786.14 970)">活動</text><text font-family="Meiryo UI,Meiryo UI_MSFontService,sans-serif" font-weight="700" font-size="28" transform="matrix(1 0 0 1 2760.66 1003)">教室</text><text fill="#EE0000" font-family="Meiryo UI,Meiryo UI_MSFontService,sans-serif" font-weight="400" font-size="37" transform="matrix(1 2.95822e-25 -2.95822e-25 1 3613.8 840)" text-anchor="middle"><tspan x="15.7268" y="34.60">︵</tspan><tspan x="15.7268" y="71.60">３</tspan><tspan x="15.7268" y="108.60">階</tspan><tspan x="15.7268" y="145.60">南</tspan><tspan x="15.7268" y="182.60">︶</tspan></text><text fill="#00B050" font-family="Meiryo UI,Meiryo UI_MSFontService,sans-serif" font-weight="400" font-size="37" transform="matrix(1 0 0 1 2718.78 226)">（３階東）</text><rect x="3281.5" y="963.5" width="55" height="68.0001" stroke="#042433" stroke-width="6.875" stroke-miterlimit="8" fill="#FFFFFF"/><text font-family="Meiryo UI,Meiryo UI_MSFontService,sans-serif" font-weight="700" font-size="18" transform="matrix(1 0 0 1 3299.5 993)">階</text><text font-family="Meiryo UI,Meiryo UI_MSFontService,sans-serif" font-weight="700" font-size="18" transform="matrix(1 0 0 1 3299.5 1015)">段</text><rect x="2862.5" y="963.5" width="54" height="68.0001" stroke="#042433" stroke-width="6.875" stroke-miterlimit="8" fill="#FFFFFF"/><text font-family="Meiryo UI,Meiryo UI_MSFontService,sans-serif" font-weight="700" font-size="18" transform="matrix(1 0 0 1 2879.86 993)">階</text><text font-family="Meiryo UI,Meiryo UI_MSFontService,sans-serif" font-weight="700" font-size="18" transform="matrix(1 0 0 1 2879.86 1015)">段</text><rect x="2751.5" y="480.5" width="143" height="91.9998" stroke="#042433" stroke-width="6.875" stroke-miterlimit="8" fill="#D9F2D0"/><text font-family="Meiryo UI,Meiryo UI_MSFontService,sans-serif" font-weight="700" font-size="28" transform="matrix(1 0 0 1 2771.75 538)">１部</text><text font-family="Meiryo UI,Meiryo UI_MSFontService,sans-serif" font-weight="700" font-size="28" transform="matrix(1 0 0 1 2826.75 538)">6</text><text font-family="Meiryo UI,Meiryo UI_MSFontService,sans-serif" font-weight="700" font-size="28" transform="matrix(1 0 0 1 2845.08 538)">年</text><rect x="2751.5" y="572.5" width="143" height="93.0002" stroke="#042433" stroke-width="6.875" stroke-miterlimit="8" fill="#D9F2D0"/><text font-family="Meiryo UI,Meiryo UI_MSFontService,sans-serif" font-weight="700" font-size="28" transform="matrix(1 0 0 1 2771.75 630)">２部</text><text font-family="Meiryo UI,Meiryo UI_MSFontService,sans-serif" font-weight="700" font-size="28" transform="matrix(1 0 0 1 2826.75 630)">6</text><text font-family="Meiryo UI,Meiryo UI_MSFontService,sans-serif" font-weight="700" font-size="28" transform="matrix(1 0 0 1 2845.08 630)">年</text><rect x="2751.5" y="664.5" width="143" height="92.0001" stroke="#042433" stroke-width="6.875" stroke-miterlimit="8" fill="#D9F2D0"/><text font-family="Meiryo UI,Meiryo UI_MSFontService,sans-serif" font-weight="700" font-size="28" transform="matrix(1 0 0 1 2771.75 722)">３部</text><text font-family="Meiryo UI,Meiryo UI_MSFontService,sans-serif" font-weight="700" font-size="28" transform="matrix(1 0 0 1 2826.75 722)">6</text><text font-family="Meiryo UI,Meiryo UI_MSFontService,sans-serif" font-weight="700" font-size="28" transform="matrix(1 0 0 1 2845.08 722)">年</text><rect x="2716.5" y="247.5" width="178" height="126" stroke="#042433" stroke-width="6.875" stroke-miterlimit="8" fill="#D9F2D0"/><text font-family="Meiryo UI,Meiryo UI_MSFontService,sans-serif" font-weight="700" font-size="28" transform="matrix(1 0 0 1 2736.4 322)">社会科教室</text><rect x="2751.5" y="754.5" width="143" height="38.9998" stroke="#042433" stroke-width="6.875" stroke-miterlimit="8" fill="#FFFFFF"/><text font-family="Meiryo UI,Meiryo UI_MSFontService,sans-serif" font-weight="700" font-size="18" transform="matrix(1 0 0 1 2794.66 781)">ＷＣ女</text><rect x="2716.5" y="880.5" width="102" height="39.0002" stroke="#042433" stroke-width="6.875" stroke-miterlimit="8" fill="#FFFFFF"/><text font-family="Meiryo UI,Meiryo UI_MSFontService,sans-serif" font-weight="700" font-size="18" transform="matrix(1 0 0 1 2739.68 906)">ＷＣ男</text><path d="M2348.5 578.5 2527.25 578.5 2527.25 1156.79 3222.5 1156.79 3222.5 1361.3 2636.89 1361.3 2636.89 1557.5 2348.5 1557.5 2348.5 1361.3 2348.5 1361.01 2348.5 1156.79Z" stroke="#042433" stroke-width="6.875" stroke-miterlimit="8" fill="none" fill-rule="evenodd"/><rect x="2951.5" y="1156.5" width="270" height="205" stroke="#042433" stroke-width="6.875" stroke-miterlimit="8" fill="#FBE3D6"/><text font-family="Meiryo UI,Meiryo UI_MSFontService,sans-serif" font-weight="700" font-size="64" transform="matrix(1 0 0 1 3021.75 1259)">１体</text><text font-family="Meiryo UI,Meiryo UI_MSFontService,sans-serif" font-weight="400" font-size="41" transform="matrix(1 0 0 1 2972.18 1313)">(</text><text font-family="Meiryo UI,Meiryo UI_MSFontService,sans-serif" font-weight="400" font-size="41" transform="matrix(1 0 0 1 2990.51 1313)">第</text><text font-family="Meiryo UI,Meiryo UI_MSFontService,sans-serif" font-weight="400" font-size="41" transform="matrix(1 0 0 1 3031.76 1313)">1</text><text font-family="Meiryo UI,Meiryo UI_MSFontService,sans-serif" font-weight="400" font-size="41" transform="matrix(1 0 0 1 3057.54 1313)">体育館</text><text font-family="Meiryo UI,Meiryo UI_MSFontService,sans-serif" font-weight="400" font-size="41" transform="matrix(1 0 0 1 3181.29 1313)">)</text><text fill="#EE0000" font-family="Meiryo UI,Meiryo UI_MSFontService,sans-serif" font-weight="400" font-size="37" transform="matrix(1 2.95822e-25 -2.95822e-25 1 3248.08 1155)" text-anchor="middle"><tspan x="15.7268" y="34.60">︵</tspan><tspan x="15.7268" y="71.60">１</tspan><tspan x="15.7268" y="108.60">階</tspan><tspan x="15.7268" y="145.60">南</tspan><tspan x="15.7268" y="182.60">︶</tspan></text><rect x="2895.5" y="1292.5" width="55" height="69.0001" stroke="#042433" stroke-width="6.875" stroke-miterlimit="8" fill="#FFFFFF"/><text font-family="Meiryo UI,Meiryo UI_MSFontService,sans-serif" font-weight="700" font-size="18" transform="matrix(1 0 0 1 2913.17 1323)">階</text><text font-family="Meiryo UI,Meiryo UI_MSFontService,sans-serif" font-weight="700" font-size="18" transform="matrix(1 0 0 1 2913.17 1345)">段</text><rect x="2637.5" y="1292.5" width="54" height="69.0001" stroke="#042433" stroke-width="6.875" stroke-miterlimit="8" fill="#FFFFFF"/><text font-family="Meiryo UI,Meiryo UI_MSFontService,sans-serif" font-weight="700" font-size="18" transform="matrix(1 0 0 1 2654.71 1323)">階</text><text font-family="Meiryo UI,Meiryo UI_MSFontService,sans-serif" font-weight="700" font-size="18" transform="matrix(1 0 0 1 2654.71 1345)">段</text><rect x="2532.5" y="1391.5" width="105" height="128" stroke="#042433" stroke-width="6.875" stroke-miterlimit="8" fill="#FFFFFF"/><text font-family="Meiryo UI,Meiryo UI_MSFontService,sans-serif" font-weight="700" font-size="32" transform="matrix(1 0 0 1 2552.19 1468)">受付</text><rect x="2381.5" y="1078.5" width="144" height="39.0002" stroke="#042433" stroke-width="6.875" stroke-miterlimit="8" fill="#FFFFFF"/><text font-family="Meiryo UI,Meiryo UI_MSFontService,sans-serif" font-weight="700" font-size="18" transform="matrix(1 0 0 1 2425.55 1104)">ＷＣ女</text><rect x="2347.5" y="1308.5" width="102" height="38.9999" stroke="#042433" stroke-width="6.875" stroke-miterlimit="8" fill="#FFFFFF"/><text font-family="Meiryo UI,Meiryo UI_MSFontService,sans-serif" font-weight="700" font-size="18" transform="matrix(1 0 0 1 2370.57 1334)">ＷＣ男</text><text fill="#EE0000" font-family="Meiryo UI,Meiryo UI_MSFontService,sans-serif" font-weight="400" font-size="37" transform="matrix(1 2.95822e-25 -2.95822e-25 1 2672.29 840)" text-anchor="middle"><tspan x="15.7268" y="34.60">︵</tspan><tspan x="15.7268" y="71.60">３</tspan><tspan x="15.7268" y="108.60">階</tspan><tspan x="15.7268" y="145.60">中</tspan><tspan x="15.7268" y="182.60">央</tspan><tspan x="15.7268" y="219.60">︶</tspan></text></g></svg>