<svg viewBox="0 0 1484 1625" width="1484" height="1625" xmlns="http://www.w3.org/2000/svg" xmlns:xlink="http://www.w3.org/1999/xlink" xml:space="preserve" overflow="hidden"><g transform="translate(-2295 -173)"><path d="M2716.5 248.5 2895.25 248.5 2895.25 826.941 3590.5 826.941 3590.5 1031.5 2716.5 1031.5 2716.5 826.941 2716.5 826.941Z" stroke="#042433" stroke-width="6.875" stroke-miterlimit="8" fill="none" fill-rule="evenodd"/><rect x="3324.5" y="827.5" width="270" height="204" stroke="#042433" stroke-width="6.875" stroke-miterlimit="8" fill="#FBE3D6"/><text font-family="Meiryo UI,Meiryo UI_MSFontService,sans-serif" font-weight="700" font-size="83" transform="matrix(1 0 0 1 3376.77 962)">講堂</text><rect x="2906.5" y="827.5" width="143" height="92.0001" stroke="#042433" stroke-width="6.875" stroke-miterlimit="8" fill="#FBE3D6"/><text font-family="Meiryo UI,Meiryo UI_MSFontService,sans-serif" font-weight="700" font-size="28" transform="matrix(1 0 0 1 2931.8 884)">4</text><text font-family="Meiryo UI,Meiryo UI_MSFontService,sans-serif" font-weight="700" font-size="28" transform="matrix(1 0 0 1 2950.14 884)">部</text><text font-family="Meiryo UI,Meiryo UI_MSFontService,sans-serif" font-weight="700" font-size="28" transform="matrix(1 0 0 1 2977.64 884)">6</text><text font-family="Meiryo UI,Meiryo UI_MSFontService,sans-serif" font-weight="700" font-size="28" transform="matrix(1 0 0 1 2995.97 884)">年</text><rect x="3049.5" y="827.5" width="144" height="92.0001" stroke="#042433" stroke-width="6.875" stroke-miterlimit="8" fill="#FBE3D6"/><text font-family="Meiryo UI,Meiryo UI_MSFontService,sans-serif" font-weight="700" font-size="28" transform="matrix(1 0 0 1 3065.96 884)">１部５年</text><rect x="3193.5" y="827.5" width="77" height="92.0001" stroke="#042433" stroke-width="6.875" stroke-miterlimit="8" fill="#FBE3D6"/><text font-family="Meiryo UI,Meiryo UI_MSFontService,sans-serif" font-weight="700" font-size="18" transform="matrix(1 0 0 1 3213.08 869)">算数</text><text font-family="Meiryo UI,Meiryo UI_MSFontService,sans-serif" font-weight="700" font-size="18" transform="matrix(1 0 0 1 3213.08 891)">部室</text><rect x="3030.5" y="956.5" width="186" height="74.9999" stroke="#042433" stroke-width="6.875" stroke-miterlimit="8" fill="#F2AA84"/><text font-family="Meiryo UI,Meiryo UI_MSFontService,sans-serif" font-weight="700" font-size="32" transform="matrix(1 0 0 1 3059.09 1006)">書籍販売</text><rect x="2716.5" y="919.5" width="144" height="112" stroke="#042433" stroke-width="6.875" stroke-miterlimit="8" fill="#FBE3D6"/><text font-family="Meiryo UI,Meiryo UI_MSFontService,sans-serif" font-weight="700" font-size="28" transform="matrix(1 0 0 1 2735.15 970)">ICT</text><text font-family="Meiryo UI,Meiryo UI_MSFontService,sans-serif" font-weight="700" font-size="28" transform="matrix(1 0 0 1 2786.14 970)">活動</text><text font-family="Meiryo UI,Meiryo UI_MSFontService,sans-serif" font-weight="700" font-size="28" transform="matrix(1 0 0 1 2760.66 1003)">教室</text><rect x="2902.5" y="1301.5" width="270" height="204" stroke="#042433" stroke-width="6.875" stroke-miterlimit="8" fill="#FBE3D6"/><text font-family="Meiryo UI,Meiryo UI_MSFontService,sans-serif" font-weight="700" font-size="64" transform="matrix(1 0 0 1 2972.87 1404)">１体</text><text font-family="Meiryo UI,Meiryo UI_MSFontService,sans-serif" font-weight="400" font-size="41" transform="matrix(1 0 0 1 2923.31 1458)">(</text><text font-family="Meiryo UI,Meiryo UI_MSFontService,sans-serif" font-weight="400" font-size="41" transform="matrix(1 0 0 1 2941.64 1458)">第</text><text font-family="Meiryo UI,Meiryo UI_MSFontService,sans-serif" font-weight="400" font-size="41" transform="matrix(1 0 0 1 2982.89 1458)">1</text><text font-family="Meiryo UI,Meiryo UI_MSFontService,sans-serif" font-weight="400" font-size="41" transform="matrix(1 0 0 1 3008.67 1458)">体育館</text><text font-family="Meiryo UI,Meiryo UI_MSFontService,sans-serif" font-weight="400" font-size="41" transform="matrix(1 0 0 1 3132.42 1458)">)</text><text fill="#EE0000" font-family="Meiryo UI,Meiryo UI_MSFontService,sans-serif" font-weight="400" font-size="37" writing-mode="tb-rl" transform="matrix(1 2.95822e-25 -2.95822e-25 1 3613.8 840)" x="15.7268" y="2.78223">（３階南）</text><text fill="#00B050" font-family="Meiryo UI,Meiryo UI_MSFontService,sans-serif" font-weight="400" font-size="37" transform="matrix(1 0 0 1 2718.78 226)">（３階東）</text><text fill="#EE0000" font-family="Meiryo UI,Meiryo UI_MSFontService,sans-serif" font-weight="400" font-size="37" writing-mode="tb-rl" transform="matrix(1 2.95822e-25 -2.95822e-25 1 3199.21 1300)" x="15.7268" y="2.78223">（１階南）</text><rect x="3270.5" y="956.5" width="55" height="67.9998" stroke="#042433" stroke-width="6.875" stroke-miterlimit="8" fill="#FFFFFF"/><text font-family="Meiryo UI,Meiryo UI_MSFontService,sans-serif" font-weight="700" font-size="18" transform="matrix(1 0 0 1 3288.26 986)">階</text><text font-family="Meiryo UI,Meiryo UI_MSFontService,sans-serif" font-weight="700" font-size="18" transform="matrix(1 0 0 1 3288.26 1008)">段</text><rect x="2867.5" y="956.5" width="54" height="67.9997" stroke="#042433" stroke-width="6.875" stroke-miterlimit="8" fill="#FFFFFF"/><text font-family="Meiryo UI,Meiryo UI_MSFontService,sans-serif" font-weight="700" font-size="18" transform="matrix(1 0 0 1 2884.66 986)">階</text><text font-family="Meiryo UI,Meiryo UI_MSFontService,sans-serif" font-weight="700" font-size="18" transform="matrix(1 0 0 1 2884.66 1008)">段</text><rect x="2846.5" y="1437.5" width="55" height="68.0001" stroke="#042433" stroke-width="6.875" stroke-miterlimit="8" fill="#FFFFFF"/><text font-family="Meiryo UI,Meiryo UI_MSFontService,sans-serif" font-weight="700" font-size="18" transform="matrix(1 0 0 1 2864.29 1467)">階</text><text font-family="Meiryo UI,Meiryo UI_MSFontService,sans-serif" font-weight="700" font-size="18" transform="matrix(1 0 0 1 2864.29 1489)">段</text><rect x="2588.5" y="1437.5" width="54" height="68.0001" stroke="#042433" stroke-width="6.875" stroke-miterlimit="8" fill="#FFFFFF"/><text font-family="Meiryo UI,Meiryo UI_MSFontService,sans-serif" font-weight="700" font-size="18" transform="matrix(1 0 0 1 2605.83 1467)">階</text><text font-family="Meiryo UI,Meiryo UI_MSFontService,sans-serif" font-weight="700" font-size="18" transform="matrix(1 0 0 1 2605.83 1489)">段</text><path d="M2299.5 723.5 2478.25 723.5 2478.25 1301.79 3173.5 1301.79 3173.5 1506.3 2587.89 1506.3 2587.89 1702.5 2299.5 1702.5 2299.5 1506.3 2299.5 1506.01 2299.5 1301.79Z" stroke="#042433" stroke-width="6.875" stroke-miterlimit="8" fill="none" fill-rule="evenodd"/><rect x="2483.5" y="1535.5" width="105" height="129" stroke="#042433" stroke-width="6.875" stroke-miterlimit="8" fill="#FFFFFF"/><text font-family="Meiryo UI,Meiryo UI_MSFontService,sans-serif" font-weight="700" font-size="32" transform="matrix(1 0 0 1 2503.32 1612)">受付</text><rect x="2751.5" y="480.5" width="143" height="91.9998" stroke="#042433" stroke-width="6.875" stroke-miterlimit="8" fill="#D9F2D0"/><text font-family="Meiryo UI,Meiryo UI_MSFontService,sans-serif" font-weight="700" font-size="28" transform="matrix(1 0 0 1 2771.75 538)">１部</text><text font-family="Meiryo UI,Meiryo UI_MSFontService,sans-serif" font-weight="700" font-size="28" transform="matrix(1 0 0 1 2826.75 538)">6</text><text font-family="Meiryo UI,Meiryo UI_MSFontService,sans-serif" font-weight="700" font-size="28" transform="matrix(1 0 0 1 2845.08 538)">年</text><rect x="2751.5" y="572.5" width="143" height="93.0002" stroke="#042433" stroke-width="6.875" stroke-miterlimit="8" fill="#D9F2D0"/><text font-family="Meiryo UI,Meiryo UI_MSFontService,sans-serif" font-weight="700" font-size="28" transform="matrix(1 0 0 1 2771.75 630)">２部</text><text font-family="Meiryo UI,Meiryo UI_MSFontService,sans-serif" font-weight="700" font-size="28" transform="matrix(1 0 0 1 2826.75 630)">6</text><text font-family="Meiryo UI,Meiryo UI_MSFontService,sans-serif" font-weight="700" font-size="28" transform="matrix(1 0 0 1 2845.08 630)">年</text><rect x="2751.5" y="664.5" width="143" height="92.0001" stroke="#042433" stroke-width="6.875" stroke-miterlimit="8" fill="#D9F2D0"/><text font-family="Meiryo UI,Meiryo UI_MSFontService,sans-serif" font-weight="700" font-size="28" transform="matrix(1 0 0 1 2771.75 722)">３部</text><text font-family="Meiryo UI,Meiryo UI_MSFontService,sans-serif" font-weight="700" font-size="28" transform="matrix(1 0 0 1 2826.75 722)">6</text><text font-family="Meiryo UI,Meiryo UI_MSFontService,sans-serif" font-weight="700" font-size="28" transform="matrix(1 0 0 1 2845.08 722)">年</text><rect x="2716.5" y="247.5" width="178" height="126" stroke="#042433" stroke-width="6.875" stroke-miterlimit="8" fill="#D9F2D0"/><text font-family="Meiryo UI,Meiryo UI_MSFontService,sans-serif" font-weight="700" font-size="28" transform="matrix(1 0 0 1 2736.4 322)">社会科教室</text><rect x="3420.5" y="1561.5" width="195" height="121" stroke="#042433" stroke-width="6.875" stroke-miterlimit="8" fill="#F2CFEE"/><text font-family="Meiryo UI,Meiryo UI_MSFontService,sans-serif" font-weight="700" font-size="46" transform="matrix(1 0 0 1 3472.03 1627)">１音</text><text font-family="Meiryo UI,Meiryo UI_MSFontService,sans-serif" font-weight="400" font-size="23" transform="matrix(1 0 0 1 3454.54 1659)">(</text><text font-family="Meiryo UI,Meiryo UI_MSFontService,sans-serif" font-weight="400" font-size="23" transform="matrix(1 0 0 1 3464.85 1659)">第</text><text font-family="Meiryo UI,Meiryo UI_MSFontService,sans-serif" font-weight="400" font-size="23" transform="matrix(1 0 0 1 3487.77 1659)">1</text><text font-family="Meiryo UI,Meiryo UI_MSFontService,sans-serif" font-weight="400" font-size="23" transform="matrix(1 0 0 1 3502.09 1659)">音楽室</text><text font-family="Meiryo UI,Meiryo UI_MSFontService,sans-serif" font-weight="400" font-size="23" transform="matrix(1 0 0 1 3570.84 1659)">)</text><rect x="3476.5" y="1372.5" width="195" height="121" stroke="#042433" stroke-width="6.875" stroke-miterlimit="8" fill="#F2CFEE"/><text font-family="Meiryo UI,Meiryo UI_MSFontService,sans-serif" font-weight="700" font-size="46" transform="matrix(1 0 0 1 3527.89 1437)">２音</text><text font-family="Meiryo UI,Meiryo UI_MSFontService,sans-serif" font-weight="400" font-size="23" transform="matrix(1 0 0 1 3506.12 1469)">(</text><text font-family="Meiryo UI,Meiryo UI_MSFontService,sans-serif" font-weight="400" font-size="23" transform="matrix(1 0 0 1 3516.43 1469)">第２音楽室</text><text font-family="Meiryo UI,Meiryo UI_MSFontService,sans-serif" font-weight="400" font-size="23" transform="matrix(1 0 0 1 3631.02 1469)">)</text><rect x="3479.5" y="1493.5" width="55" height="68.0001" stroke="#042433" stroke-width="6.875" stroke-miterlimit="8" fill="#FFFFFF"/><text font-family="Meiryo UI,Meiryo UI_MSFontService,sans-serif" font-weight="700" font-size="18" transform="matrix(1 0 0 1 3497.53 1523)">階</text><text font-family="Meiryo UI,Meiryo UI_MSFontService,sans-serif" font-weight="700" font-size="18" transform="matrix(1 0 0 1 3497.53 1545)">段</text><text fill="#A02B93" font-family="Meiryo UI,Meiryo UI_MSFontService,sans-serif" font-weight="400" font-size="37" writing-mode="tb-rl" transform="matrix(1 2.95822e-25 -2.95822e-25 1 3707.52 1306)" x="15.7268" y="2.78223">（西校舎２階）</text><text fill="#A02B93" font-family="Meiryo UI,Meiryo UI_MSFontService,sans-serif" font-weight="400" font-size="37" writing-mode="tb-rl" transform="matrix(1 2.95822e-25 -2.95822e-25 1 3642.36 1502)" x="15.7268" y="2.78223">（西校舎１階）</text><rect x="3550.5" y="1031.5" width="44" height="341" stroke="#042433" stroke-width="6.875" stroke-miterlimit="8" stroke-dasharray="6.875 6.875" fill="#FFFFFF"/><text font-family="Meiryo UI,Meiryo UI_MSFontService,sans-serif" font-weight="700" font-size="18" transform="matrix(1 0 0 1 3562.69 1198)">通</text><text font-family="Meiryo UI,Meiryo UI_MSFontService,sans-serif" font-weight="700" font-size="18" transform="matrix(1 0 0 1 3562.69 1220)">路</text><rect x="2751.5" y="754.5" width="143" height="38.9998" stroke="#042433" stroke-width="6.875" stroke-miterlimit="8" fill="#FFFFFF"/><text font-family="Meiryo UI,Meiryo UI_MSFontService,sans-serif" font-weight="700" font-size="18" transform="matrix(1 0 0 1 2794.66 781)">ＷＣ女</text><rect x="2716.5" y="873.5" width="102" height="39.0002" stroke="#042433" stroke-width="6.875" stroke-miterlimit="8" fill="#FFFFFF"/><text font-family="Meiryo UI,Meiryo UI_MSFontService,sans-serif" font-weight="700" font-size="18" transform="matrix(1 0 0 1 2739.68 900)">ＷＣ男</text><rect x="2333.5" y="1223.5" width="143" height="39.0002" stroke="#042433" stroke-width="6.875" stroke-miterlimit="8" fill="#FFFFFF"/><text font-family="Meiryo UI,Meiryo UI_MSFontService,sans-serif" font-weight="700" font-size="18" transform="matrix(1 0 0 1 2376.68 1249)">ＷＣ女</text><rect x="2298.5" y="1452.5" width="102" height="39.0002" stroke="#042433" stroke-width="6.875" stroke-miterlimit="8" fill="#FFFFFF"/><text font-family="Meiryo UI,Meiryo UI_MSFontService,sans-serif" font-weight="700" font-size="18" transform="matrix(1 0 0 1 2321.7 1479)">ＷＣ男</text><text fill="#EE0000" font-family="Meiryo UI,Meiryo UI_MSFontService,sans-serif" font-weight="400" font-size="37" writing-mode="tb-rl" transform="matrix(1 2.95822e-25 -2.95822e-25 1 2672.29 840)" x="15.7268" y="2.78223">（３階中央）</text></g></svg>